<svg width="138" height="44" viewBox="0 0 138 44" fill="none" xmlns="http://www.w3.org/2000/svg">
<g id="soundcloud">
<path id="Exclude" fill-rule="evenodd" clip-rule="evenodd" d="M137 22C137 30.8366 129.836 38 121 38C112.164 38 105 30.8366 105 22C105 13.1635 112.164 6 121 6C129.836 6 137 13.1635 137 22ZM109.733 25.9412C109.75 25.9244 109.761 25.9003 109.765 25.8721L109.966 24.523L109.765 23.1496C109.757 23.0925 109.72 23.0529 109.672 23.0529C109.633 23.0529 109.602 23.0782 109.587 23.1176C109.583 23.1275 109.581 23.1382 109.579 23.1496L109.41 24.5215L109.579 25.8708C109.587 25.9274 109.624 25.9669 109.672 25.9669C109.696 25.9669 109.717 25.9574 109.733 25.9412ZM110.529 26.7915C110.579 26.7915 110.619 26.7504 110.626 26.6918L110.886 24.5212L110.626 22.3019C110.619 22.2439 110.579 22.2022 110.529 22.2022C110.481 22.2022 110.44 22.2448 110.433 22.3019L110.206 24.5212L110.433 26.6918C110.439 26.7504 110.481 26.7915 110.529 26.7915ZM111.534 27.1274C111.546 27.1084 111.554 27.0853 111.557 27.0594L111.801 24.523L111.557 21.8903C111.549 21.8188 111.5 21.7677 111.44 21.7677C111.379 21.7677 111.33 21.8188 111.324 21.8903L111.108 24.523L111.324 27.0594C111.33 27.1299 111.379 27.1801 111.44 27.1801C111.478 27.1801 111.512 27.16 111.534 27.1274ZM112.359 27.2819C112.429 27.2819 112.488 27.2208 112.495 27.1399L112.727 24.523L112.495 21.8179C112.49 21.76 112.459 21.7124 112.417 21.6897C112.399 21.6804 112.379 21.6753 112.359 21.6753C112.287 21.6753 112.228 21.7364 112.222 21.8179L112.018 24.523L112.222 27.1399C112.228 27.2208 112.287 27.2819 112.359 27.2819ZM113.285 27.3245C113.366 27.3245 113.435 27.2549 113.439 27.1609L113.658 24.5227L113.439 22.0119C113.436 21.9366 113.39 21.8764 113.328 21.8568C113.314 21.8525 113.3 21.8501 113.285 21.8501C113.201 21.8501 113.134 21.9198 113.128 22.0131L112.936 24.5227L113.128 27.1609C113.134 27.2549 113.201 27.3245 113.285 27.3245ZM114.338 27.2919C114.37 27.2587 114.39 27.213 114.393 27.1624L114.597 24.5242L114.393 20.4397C114.387 20.3375 114.31 20.2551 114.217 20.2551C114.124 20.2551 114.046 20.3372 114.041 20.4412L113.861 24.5242L114.041 27.1624C114.046 27.2646 114.124 27.347 114.217 27.347C114.264 27.347 114.307 27.326 114.338 27.2919ZM115.142 27.3658C115.248 27.3658 115.333 27.2743 115.339 27.1609L115.53 24.5382L115.339 19.5211C115.333 19.4062 115.248 19.3153 115.142 19.3153C115.039 19.3153 114.953 19.4062 114.948 19.5211L114.778 24.5382L114.948 27.1594C114.953 27.2743 115.039 27.3658 115.142 27.3658ZM116.105 27.3464C116.221 27.3464 116.316 27.2469 116.32 27.1205L116.499 24.526L116.32 19.0894C116.316 18.9629 116.221 18.8617 116.105 18.8617C115.989 18.8617 115.895 18.9629 115.891 19.0894L115.733 24.526L115.891 27.1205C115.895 27.2469 115.989 27.3464 116.105 27.3464ZM117.062 27.3515C117.189 27.3515 117.291 27.2424 117.296 27.1031L117.459 24.5254L117.296 18.9073C117.292 18.7674 117.189 18.6586 117.062 18.6586C116.934 18.6586 116.831 18.7674 116.827 18.9073L116.679 24.5254L116.827 27.1044C116.831 27.2424 116.934 27.3515 117.062 27.3515ZM118.023 27.3488C118.163 27.3488 118.273 27.2293 118.278 27.0803L118.43 24.526L118.278 19.0514C118.273 18.8988 118.163 18.7808 118.023 18.7808C117.884 18.7808 117.772 18.8988 117.768 19.0514L117.634 24.526L117.77 27.0803C117.772 27.2293 117.885 27.3488 118.023 27.3488ZM118.994 27.3531C119.144 27.3531 119.266 27.2269 119.268 27.0651L119.406 24.5273L119.268 19.2514C119.266 19.0879 119.144 18.9599 118.994 18.9599C118.843 18.9599 118.723 19.0879 118.719 19.2514L118.596 24.5257L118.718 27.0651C118.723 27.2269 118.843 27.3531 118.994 27.3531ZM120.266 27.046L120.39 24.5273L120.266 18.2493C120.264 18.1411 120.213 18.0465 120.134 17.9903C120.087 17.9559 120.032 17.9364 119.973 17.9364C119.913 17.9364 119.859 17.9553 119.814 17.9875C119.733 18.0432 119.679 18.1402 119.678 18.249L119.676 18.3086L119.565 24.5242L119.678 27.0478L119.678 27.0546L119.679 27.0591C119.682 27.1281 119.707 27.1937 119.747 27.2445C119.802 27.3145 119.882 27.3588 119.973 27.3588C120.05 27.3588 120.124 27.3233 120.178 27.2676C120.206 27.237 120.229 27.2 120.244 27.1588C120.257 27.1238 120.265 27.0857 120.266 27.046ZM120.945 27.3436C121.116 27.3436 121.257 27.194 121.259 27.0134L121.399 24.5282L121.261 17.6801C121.258 17.5594 121.195 17.4539 121.106 17.3943C121.059 17.3651 121.004 17.3478 120.945 17.3478C120.871 17.3478 120.802 17.3764 120.748 17.4235C120.678 17.4859 120.632 17.5783 120.632 17.6817V17.716L120.503 24.5285L120.567 25.7866L120.632 27.0119C120.633 27.194 120.774 27.3436 120.945 27.3436ZM121.835 27.3503H129.739C131.313 27.3503 132.589 26.004 132.589 24.3254C132.589 22.6464 131.313 21.2855 129.739 21.2855C129.349 21.2855 128.976 21.3713 128.637 21.5218C128.409 18.7838 126.255 16.6345 123.626 16.6345C122.982 16.6345 122.355 16.7695 121.802 16.9982C121.587 17.086 121.53 17.1776 121.527 17.3551V27.0007C121.53 27.1871 121.665 27.3318 121.835 27.3503Z" fill="#E8E8E8"/>
</g>
</svg>